<svg aria-hidden="true" style="width:0;height:0;position:absolute;overflow:hidden" xmlns="http://www.w3.org/2000/svg"><defs><symbol id="icon-Arrow-hero" viewBox="0 0 82 32"><path d="M81.414 17.414a2 2 0 0 0 0-2.828L68.686 1.858a2 2 0 1 0-2.828 2.828L77.172 16 65.858 27.314a2 2 0 1 0 2.828 2.828l12.728-12.728zM0 18h80v-4H0v4z"/></symbol><symbol id="icon-close" viewBox="0 0 32 32"><path d="M28.614 1.13 16 13.744 3.386 1.13a1.594 1.594 0 0 0-2.207.049 1.596 1.596 0 0 0-.049 2.207L13.738 16 1.127 28.611a1.6 1.6 0 0 0-.029 2.284 1.579 1.579 0 0 0 1.147.468 1.616 1.616 0 0 0 1.137-.493L16 18.259l12.614 12.614a1.6 1.6 0 0 0 2.207-.049 1.596 1.596 0 0 0 .049-2.207L18.256 16.003 30.87 3.385a1.6 1.6 0 0 0 .029-2.284 1.579 1.579 0 0 0-1.147-.468 1.601 1.601 0 0 0-1.137.494v.003z"/></symbol><symbol id="icon-Burger" viewBox="0 0 32 32"><path stroke-linecap="round" stroke-width="2.909" d="M1.455 7.273h29.091M1.455 16h29.091M1.455 24.727h29.091"/></symbol><symbol id="icon-github" viewBox="0 0 32 32"><path fill="#f8d24e" style="fill:var(--color1,#f8d24e)" d="M32 16c0 8.837-7.163 16-16 16S0 24.837 0 16 7.163 0 16 0s16 7.163 16 16z"/><path d="M16 6.588c-5.169 0-9.412 4.242-9.412 9.412 0 4.411 3.095 8.419 7.206 9.412v-3.114a2.307 2.307 0 0 1-1.197-.03c-.556-.164-1.008-.535-1.344-1.1-.214-.361-.593-.752-.988-.723l-.097-1.099c.855-.073 1.595.521 2.034 1.259.195.328.419.52.708.605.278.082.578.043.926-.08.088-.698.407-.959.648-1.326v-.001c-2.451-.366-3.428-1.666-3.816-2.693-.514-1.363-.238-3.066.671-4.142.018-.021.05-.076.037-.114-.417-1.258.091-2.299.11-2.41.481.142.559-.143 2.089.786l.264.159c.111.066.076.028.186.02A8.031 8.031 0 0 1 16 11.131a8.016 8.016 0 0 1 2.002.285l.086.009c-.007-.001.023-.005.075-.036 1.911-1.157 1.842-.779 2.355-.946.019.111.519 1.169.107 2.411-.056.171 1.657 1.739.708 4.256-.388 1.027-1.365 2.328-3.816 2.693v.001c.314.479.692.734.69 1.722v3.887c4.111-.993 7.206-5 7.206-9.412 0-5.169-4.242-9.412-9.412-9.412z"/></symbol><symbol id="icon-facebook" viewBox="0 0 32 32"><path fill="#f8d24e" style="fill:var(--color1,#f8d24e)" d="M16 32c8.837 0 16-7.163 16-16S24.837 0 16 0 0 7.163 0 16s7.163 16 16 16z"/><path d="M20.446 15.982h-2.61v9.619h-3.955v-9.619H12v-3.38h1.881v-2.187c0-1.564.739-4.014 3.99-4.014l2.929.012v3.281h-2.125c-.349 0-.839.175-.839.921v1.989h2.955l-.346 3.377z"/></symbol><symbol id="icon-telegram" viewBox="0 0 32 32"><path fill="#f8d24e" style="fill:var(--color1,#f8d24e)" d="M32 16c0 8.837-7.163 16-16 16S0 24.837 0 16 7.163 0 16 0s16 7.163 16 16z"/><path d="m12.867 18.375-.318 4.169c.454 0 .651-.182.887-.401l2.13-1.9 4.415 3.017c.81.421 1.38.199 1.599-.695l2.898-12.672.001-.001c.257-1.117-.433-1.554-1.222-1.28L6.225 14.698c-1.162.421-1.145 1.026-.198 1.3l4.355 1.264 10.115-5.907c.476-.294.909-.131.553.163l-8.182 6.857z"/></symbol><symbol id="icon-Vector" viewBox="0 0 32 32"><path d="M15.999.941C7.728.941.94 7.729.94 16c0 7.058 4.953 13.47 11.529 15.059v-4.982c-.652.143-1.251.147-1.915-.049-.89-.263-1.613-.855-2.15-1.759-.342-.577-.949-1.203-1.581-1.157l-.155-1.758c1.368-.117 2.551.833 3.254 2.014.312.525.671.832 1.132.968.446.131.924.068 1.481-.129.14-1.116.651-1.534 1.037-2.122v-.001c-3.922-.585-5.486-2.666-6.106-4.308-.822-2.181-.381-4.905 1.073-6.627.028-.034.079-.121.059-.183-.667-2.014.146-3.679.176-3.856.769.228.894-.229 3.342 1.258l.423.254c.177.105.121.045.298.032a12.77 12.77 0 0 1 3.16-.445 12.84 12.84 0 0 1 3.204.456l.137.014c-.012-.002.037-.009.12-.058 3.057-1.852 2.947-1.247 3.767-1.513.03.177.831 1.87.172 3.858-.089.274 2.651 2.782 1.132 6.809-.62 1.643-2.183 3.724-6.106 4.309v.001c.503.766 1.107 1.174 1.104 2.755v6.219C26.104 29.47 31.056 23.058 31.056 16c0-8.271-6.788-15.059-15.059-15.059z"/></symbol><symbol id="icon-icon-send_new" viewBox="0 0 32 32"><path d="M32 0 0 18l10.227 3.788L26 7 14.002 23.186l.01.004-.012-.004V32l5.735-6.691L27 28l5-28z"/></symbol><symbol id="icon-arrow-prod" viewBox="0 0 84 32"><path d="M83.337 17.191a2 2 0 0 0 0-2.828L70.609 1.635a2 2 0 1 0-2.828 2.828l11.314 11.314-11.314 11.314a2 2 0 0 0 2.828 2.829l12.728-12.728zm-81.884.586h80.469v-4H1.453v4z"/></symbol><symbol id="burger-icon" viewBox="0 0 48 32"><path d="M0 5.333V0h48v5.333H0zm0 13.334h48v-5.333H0v5.333zM0 32h48v-5.333H0V32z"/></symbol></defs></svg>